<mxfile host="app.diagrams.net" modified="2024-04-11T11:59:34.939Z" agent="Mozilla/5.0 (Macintosh; Intel Mac OS X 10_15_7) AppleWebKit/537.36 (KHTML, like Gecko) Chrome/123.0.0.0 Safari/537.36" etag="QiyPxffjz5-3PcX9d6wL" version="24.2.3" type="github">
  <diagram name="Page-1" id="nOhjvLSkiI6Gft-o41ZN">
    <mxGraphModel dx="1434" dy="756" grid="1" gridSize="10" guides="1" tooltips="1" connect="1" arrows="1" fold="1" page="1" pageScale="1" pageWidth="850" pageHeight="1100" math="0" shadow="0">
      <root>
        <mxCell id="0" />
        <mxCell id="1" parent="0" />
        <mxCell id="dDIRc1-SOkfvqXcVqXz5-7" style="edgeStyle=orthogonalEdgeStyle;rounded=0;orthogonalLoop=1;jettySize=auto;html=1;entryX=0;entryY=0.5;entryDx=0;entryDy=0;" edge="1" parent="1" source="dDIRc1-SOkfvqXcVqXz5-1" target="dDIRc1-SOkfvqXcVqXz5-4">
          <mxGeometry relative="1" as="geometry" />
        </mxCell>
        <mxCell id="dDIRc1-SOkfvqXcVqXz5-8" style="edgeStyle=orthogonalEdgeStyle;rounded=0;orthogonalLoop=1;jettySize=auto;html=1;" edge="1" parent="1" source="dDIRc1-SOkfvqXcVqXz5-1" target="dDIRc1-SOkfvqXcVqXz5-5">
          <mxGeometry relative="1" as="geometry" />
        </mxCell>
        <mxCell id="dDIRc1-SOkfvqXcVqXz5-1" value="文档" style="ellipse;whiteSpace=wrap;html=1;aspect=fixed;" vertex="1" parent="1">
          <mxGeometry x="30" y="90" width="70" height="70" as="geometry" />
        </mxCell>
        <mxCell id="dDIRc1-SOkfvqXcVqXz5-11" style="edgeStyle=orthogonalEdgeStyle;rounded=0;orthogonalLoop=1;jettySize=auto;html=1;" edge="1" parent="1" source="dDIRc1-SOkfvqXcVqXz5-2" target="dDIRc1-SOkfvqXcVqXz5-10">
          <mxGeometry relative="1" as="geometry" />
        </mxCell>
        <mxCell id="dDIRc1-SOkfvqXcVqXz5-2" value="图片、PDF、HTML......" style="text;html=1;align=center;verticalAlign=middle;whiteSpace=wrap;rounded=0;" vertex="1" parent="1">
          <mxGeometry x="20" y="175" width="90" height="30" as="geometry" />
        </mxCell>
        <mxCell id="dDIRc1-SOkfvqXcVqXz5-4" value="URI" style="ellipse;whiteSpace=wrap;html=1;aspect=fixed;" vertex="1" parent="1">
          <mxGeometry x="150" y="30" width="60" height="60" as="geometry" />
        </mxCell>
        <mxCell id="dDIRc1-SOkfvqXcVqXz5-5" value="Meta" style="ellipse;whiteSpace=wrap;html=1;aspect=fixed;" vertex="1" parent="1">
          <mxGeometry x="150" y="95" width="60" height="60" as="geometry" />
        </mxCell>
        <mxCell id="dDIRc1-SOkfvqXcVqXz5-6" value="Content" style="ellipse;whiteSpace=wrap;html=1;aspect=fixed;" vertex="1" parent="1">
          <mxGeometry x="150" y="160" width="60" height="60" as="geometry" />
        </mxCell>
        <mxCell id="dDIRc1-SOkfvqXcVqXz5-9" style="edgeStyle=orthogonalEdgeStyle;rounded=0;orthogonalLoop=1;jettySize=auto;html=1;entryX=0;entryY=0.683;entryDx=0;entryDy=0;entryPerimeter=0;" edge="1" parent="1" source="dDIRc1-SOkfvqXcVqXz5-1" target="dDIRc1-SOkfvqXcVqXz5-6">
          <mxGeometry relative="1" as="geometry" />
        </mxCell>
        <mxCell id="dDIRc1-SOkfvqXcVqXz5-15" style="edgeStyle=orthogonalEdgeStyle;rounded=0;orthogonalLoop=1;jettySize=auto;html=1;entryX=0;entryY=0.5;entryDx=0;entryDy=0;" edge="1" parent="1" source="dDIRc1-SOkfvqXcVqXz5-10" target="dDIRc1-SOkfvqXcVqXz5-13">
          <mxGeometry relative="1" as="geometry" />
        </mxCell>
        <mxCell id="dDIRc1-SOkfvqXcVqXz5-10" value="二维码" style="ellipse;whiteSpace=wrap;html=1;aspect=fixed;" vertex="1" parent="1">
          <mxGeometry x="30" y="310" width="70" height="70" as="geometry" />
        </mxCell>
        <mxCell id="dDIRc1-SOkfvqXcVqXz5-24" style="edgeStyle=orthogonalEdgeStyle;rounded=0;orthogonalLoop=1;jettySize=auto;html=1;" edge="1" parent="1" source="dDIRc1-SOkfvqXcVqXz5-13" target="dDIRc1-SOkfvqXcVqXz5-18">
          <mxGeometry relative="1" as="geometry" />
        </mxCell>
        <mxCell id="dDIRc1-SOkfvqXcVqXz5-13" value="Text/URL" style="ellipse;whiteSpace=wrap;html=1;aspect=fixed;" vertex="1" parent="1">
          <mxGeometry x="150" y="315" width="60" height="60" as="geometry" />
        </mxCell>
        <mxCell id="dDIRc1-SOkfvqXcVqXz5-16" style="edgeStyle=orthogonalEdgeStyle;rounded=0;orthogonalLoop=1;jettySize=auto;html=1;entryX=0;entryY=0.5;entryDx=0;entryDy=0;" edge="1" parent="1" source="dDIRc1-SOkfvqXcVqXz5-18" target="dDIRc1-SOkfvqXcVqXz5-20">
          <mxGeometry relative="1" as="geometry" />
        </mxCell>
        <mxCell id="dDIRc1-SOkfvqXcVqXz5-17" style="edgeStyle=orthogonalEdgeStyle;rounded=0;orthogonalLoop=1;jettySize=auto;html=1;" edge="1" parent="1" source="dDIRc1-SOkfvqXcVqXz5-18" target="dDIRc1-SOkfvqXcVqXz5-21">
          <mxGeometry relative="1" as="geometry" />
        </mxCell>
        <mxCell id="dDIRc1-SOkfvqXcVqXz5-18" value="文档" style="ellipse;whiteSpace=wrap;html=1;aspect=fixed;" vertex="1" parent="1">
          <mxGeometry x="270" y="310" width="70" height="70" as="geometry" />
        </mxCell>
        <mxCell id="dDIRc1-SOkfvqXcVqXz5-19" value="图片、PDF......" style="text;html=1;align=center;verticalAlign=middle;whiteSpace=wrap;rounded=0;" vertex="1" parent="1">
          <mxGeometry x="260" y="395" width="90" height="30" as="geometry" />
        </mxCell>
        <mxCell id="dDIRc1-SOkfvqXcVqXz5-20" value="URI" style="ellipse;whiteSpace=wrap;html=1;aspect=fixed;" vertex="1" parent="1">
          <mxGeometry x="390" y="250" width="60" height="60" as="geometry" />
        </mxCell>
        <mxCell id="dDIRc1-SOkfvqXcVqXz5-21" value="Meta" style="ellipse;whiteSpace=wrap;html=1;aspect=fixed;" vertex="1" parent="1">
          <mxGeometry x="390" y="315" width="60" height="60" as="geometry" />
        </mxCell>
        <mxCell id="dDIRc1-SOkfvqXcVqXz5-22" value="Content" style="ellipse;whiteSpace=wrap;html=1;aspect=fixed;" vertex="1" parent="1">
          <mxGeometry x="390" y="380" width="60" height="60" as="geometry" />
        </mxCell>
        <mxCell id="dDIRc1-SOkfvqXcVqXz5-23" style="edgeStyle=orthogonalEdgeStyle;rounded=0;orthogonalLoop=1;jettySize=auto;html=1;entryX=0;entryY=0.683;entryDx=0;entryDy=0;entryPerimeter=0;" edge="1" parent="1" source="dDIRc1-SOkfvqXcVqXz5-18" target="dDIRc1-SOkfvqXcVqXz5-22">
          <mxGeometry relative="1" as="geometry" />
        </mxCell>
      </root>
    </mxGraphModel>
  </diagram>
</mxfile>
